<svg width="71" height="9" viewBox="0 0 71 9" fill="none" xmlns="http://www.w3.org/2000/svg">
<g clip-path="url(#clip0_79_34)">
<path d="M5.2282 5.01113L4.22402 5.87762L4.52996 7.17345C4.54684 7.2438 4.54249 7.31757 4.51747 7.38544C4.49244 7.45332 4.44786 7.51225 4.38936 7.55481C4.33086 7.59736 4.26105 7.62162 4.18877 7.62452C4.11649 7.62742 4.04497 7.60883 3.98324 7.57111L2.85633 6.87755L1.72875 7.57111C1.66704 7.60861 1.5956 7.62702 1.52344 7.62402C1.45128 7.62101 1.38163 7.59672 1.32325 7.5542C1.26487 7.51169 1.22037 7.45285 1.19536 7.38509C1.17035 7.31734 1.16595 7.2437 1.18271 7.17345L1.48976 5.87762L0.485585 5.01113C0.43098 4.96393 0.391489 4.9017 0.372043 4.83219C0.352597 4.76269 0.354058 4.689 0.376245 4.62032C0.398432 4.55164 0.44036 4.49102 0.496794 4.44603C0.553228 4.40104 0.621666 4.37367 0.693561 4.36734L2.01015 4.26112L2.51804 3.03201C2.54553 2.96502 2.59232 2.90772 2.65246 2.8674C2.71259 2.82707 2.78337 2.80554 2.85577 2.80554C2.92818 2.80554 2.99895 2.82707 3.05909 2.8674C3.11923 2.90772 3.16602 2.96502 3.19351 3.03201L3.70118 4.26112L5.01776 4.36734C5.0898 4.37343 5.15844 4.40065 5.21508 4.44558C5.27172 4.49051 5.31384 4.55115 5.33616 4.61991C5.35849 4.68867 5.36003 4.7625 5.34058 4.83213C5.32114 4.90176 5.28158 4.9641 5.22686 5.01135L5.2282 5.01113Z" fill="#2481AA"/>
</g>
<g clip-path="url(#clip1_79_34)">
<path d="M14.7445 4.02744L13.1665 5.38907L13.6473 7.42538C13.6738 7.53592 13.6669 7.65185 13.6276 7.75851C13.5883 7.86517 13.5182 7.95778 13.4263 8.02465C13.3344 8.09152 13.2247 8.12964 13.1111 8.1342C12.9975 8.13876 12.8851 8.10955 12.7881 8.05027L11.0173 6.9604L9.24536 8.05027C9.14838 8.10921 9.03612 8.13814 8.92273 8.13341C8.80934 8.12869 8.69988 8.09051 8.60814 8.0237C8.51639 7.95689 8.44647 7.86443 8.40717 7.75796C8.36787 7.65149 8.36095 7.53578 8.38729 7.42538L8.8698 5.38907L7.29181 4.02744C7.206 3.95328 7.14394 3.85548 7.11339 3.74626C7.08283 3.63704 7.08513 3.52124 7.11999 3.41331C7.15485 3.30539 7.22074 3.21013 7.30942 3.13943C7.39811 3.06873 7.50565 3.02572 7.61863 3.01578L9.68755 2.84886L10.4857 0.917399C10.5289 0.812136 10.6024 0.722096 10.6969 0.658727C10.7914 0.595359 10.9026 0.561523 11.0164 0.561523C11.1302 0.561523 11.2414 0.595359 11.3359 0.658727C11.4304 0.722096 11.5039 0.812136 11.5471 0.917399L12.3449 2.84886L14.4138 3.01578C14.527 3.02535 14.6349 3.06812 14.7239 3.13872C14.8129 3.20932 14.8791 3.30462 14.9141 3.41268C14.9492 3.52073 14.9516 3.63674 14.9211 3.74616C14.8905 3.85558 14.8284 3.95355 14.7424 4.02779L14.7445 4.02744Z" fill="#2481AA"/>
</g>
<g clip-path="url(#clip2_79_34)">
<path d="M21.55 5.01113L20.5459 5.87762L20.8518 7.17345C20.8687 7.2438 20.8643 7.31757 20.8393 7.38544C20.8143 7.45332 20.7697 7.51225 20.7112 7.55481C20.6527 7.59736 20.5829 7.62162 20.5106 7.62452C20.4383 7.62742 20.3668 7.60883 20.3051 7.57111L19.1782 6.87755L18.0506 7.57111C17.9889 7.60861 17.9174 7.62702 17.8453 7.62402C17.7731 7.62101 17.7035 7.59672 17.6451 7.5542C17.5867 7.51169 17.5422 7.45285 17.5172 7.38509C17.4922 7.31734 17.4878 7.2437 17.5045 7.17345L17.8116 5.87762L16.8074 5.01113C16.7528 4.96393 16.7133 4.9017 16.6939 4.83219C16.6744 4.76269 16.6759 4.689 16.6981 4.62032C16.7203 4.55164 16.7622 4.49102 16.8186 4.44603C16.8751 4.40104 16.9435 4.37367 17.0154 4.36734L18.332 4.26112L18.8399 3.03201C18.8674 2.96502 18.9142 2.90772 18.9743 2.8674C19.0344 2.82707 19.1052 2.80554 19.1776 2.80554C19.25 2.80554 19.3208 2.82707 19.3809 2.8674C19.4411 2.90772 19.4879 2.96502 19.5154 3.03201L20.023 4.26112L21.3396 4.36734C21.4116 4.37343 21.4803 4.40065 21.5369 4.44558C21.5936 4.49051 21.6357 4.55115 21.658 4.61991C21.6803 4.68867 21.6819 4.7625 21.6624 4.83213C21.643 4.90176 21.6034 4.9641 21.5487 5.01135L21.55 5.01113Z" fill="#2481AA"/>
</g>
<g clip-path="url(#clip3_79_34)">
<path d="M31.0663 4.02744L29.4883 5.38907L29.9691 7.42538C29.9956 7.53592 29.9888 7.65185 29.9495 7.75851C29.9101 7.86517 29.8401 7.95778 29.7482 8.02465C29.6562 8.09152 29.5465 8.12964 29.4329 8.1342C29.3194 8.13876 29.207 8.10955 29.11 8.05027L27.3391 6.9604L25.5672 8.05027C25.4702 8.10921 25.358 8.13814 25.2446 8.13341C25.1312 8.12869 25.0217 8.09051 24.93 8.0237C24.8382 7.95689 24.7683 7.86443 24.729 7.75796C24.6897 7.65149 24.6828 7.53578 24.7091 7.42538L25.1916 5.38907L23.6136 4.02744C23.5278 3.95328 23.4658 3.85548 23.4352 3.74626C23.4047 3.63704 23.407 3.52124 23.4418 3.41331C23.4767 3.30539 23.5426 3.21013 23.6313 3.13943C23.7199 3.06873 23.8275 3.02572 23.9405 3.01578L26.0094 2.84886L26.8075 0.917399C26.8507 0.812136 26.9242 0.722096 27.0187 0.658727C27.1132 0.595359 27.2244 0.561523 27.3382 0.561523C27.452 0.561523 27.5632 0.595359 27.6577 0.658727C27.7522 0.722096 27.8258 0.812136 27.869 0.917399L28.6667 2.84886L30.7356 3.01578C30.8488 3.02535 30.9567 3.06812 31.0457 3.13872C31.1347 3.20932 31.2009 3.30462 31.236 3.41268C31.2711 3.52073 31.2735 3.63674 31.2429 3.74616C31.2124 3.85558 31.1502 3.95355 31.0642 4.02779L31.0663 4.02744Z" fill="#2481AA"/>
</g>
<g clip-path="url(#clip4_79_34)">
<path d="M37.8719 5.01113L36.8677 5.87762L37.1736 7.17345C37.1905 7.2438 37.1862 7.31757 37.1611 7.38544C37.1361 7.45332 37.0915 7.51225 37.033 7.55481C36.9745 7.59736 36.9047 7.62162 36.8324 7.62452C36.7602 7.62742 36.6886 7.60883 36.6269 7.57111L35.5 6.87755L34.3724 7.57111C34.3107 7.60861 34.2393 7.62702 34.1671 7.62402C34.095 7.62101 34.0253 7.59672 33.9669 7.5542C33.9085 7.51169 33.864 7.45285 33.839 7.38509C33.814 7.31734 33.8096 7.2437 33.8264 7.17345L34.1334 5.87762L33.1293 5.01113C33.0747 4.96393 33.0352 4.9017 33.0157 4.83219C32.9963 4.76269 32.9977 4.689 33.0199 4.62032C33.0421 4.55164 33.084 4.49102 33.1405 4.44603C33.1969 4.40104 33.2653 4.37367 33.3372 4.36734L34.6538 4.26112L35.1617 3.03201C35.1892 2.96502 35.236 2.90772 35.2961 2.8674C35.3563 2.82707 35.427 2.80554 35.4995 2.80554C35.5719 2.80554 35.6426 2.82707 35.7028 2.8674C35.7629 2.90772 35.8097 2.96502 35.8372 3.03201L36.3449 4.26112L37.6614 4.36734C37.7335 4.37343 37.8021 4.40065 37.8588 4.44558C37.9154 4.49051 37.9575 4.55115 37.9798 4.61991C38.0022 4.68867 38.0037 4.7625 37.9843 4.83213C37.9648 4.90176 37.9253 4.9641 37.8705 5.01135L37.8719 5.01113Z" fill="#2481AA"/>
</g>
<g clip-path="url(#clip5_79_34)">
<path d="M47.3882 4.02744L45.8102 5.38907L46.2909 7.42538C46.3175 7.53592 46.3106 7.65185 46.2713 7.75851C46.232 7.86517 46.1619 7.95778 46.07 8.02465C45.9781 8.09152 45.8684 8.12964 45.7548 8.1342C45.6412 8.13876 45.5288 8.10955 45.4318 8.05027L43.6609 6.9604L41.889 8.05027C41.7921 8.10921 41.6798 8.13814 41.5664 8.13341C41.453 8.12869 41.3436 8.09051 41.2518 8.0237C41.1601 7.95689 41.0901 7.86443 41.0508 7.75796C41.0115 7.65149 41.0046 7.53578 41.031 7.42538L41.5135 5.38907L39.9355 4.02744C39.8497 3.95328 39.7876 3.85548 39.7571 3.74626C39.7265 3.63704 39.7288 3.52124 39.7637 3.41331C39.7985 3.30539 39.8644 3.21013 39.9531 3.13943C40.0418 3.06873 40.1493 3.02572 40.2623 3.01578L42.3312 2.84886L43.1293 0.917399C43.1725 0.812136 43.2461 0.722096 43.3406 0.658727C43.4351 0.595359 43.5463 0.561523 43.6601 0.561523C43.7739 0.561523 43.8851 0.595359 43.9796 0.658727C44.0741 0.722096 44.1476 0.812136 44.1908 0.917399L44.9886 2.84886L47.0575 3.01578C47.1707 3.02535 47.2785 3.06812 47.3675 3.13872C47.4566 3.20932 47.5227 3.30462 47.5578 3.41268C47.5929 3.52073 47.5953 3.63674 47.5648 3.74616C47.5342 3.85558 47.472 3.95355 47.3861 4.02779L47.3882 4.02744Z" fill="#2481AA"/>
</g>
<g clip-path="url(#clip6_79_34)">
<path d="M54.1245 5.01113L52.9769 5.87762L53.3265 7.17345C53.3458 7.2438 53.3408 7.31757 53.3122 7.38544C53.2836 7.45332 53.2327 7.51225 53.1658 7.55481C53.099 7.59736 53.0192 7.62162 52.9366 7.62452C52.854 7.62742 52.7722 7.60883 52.7017 7.57111L51.4138 6.87755L50.1251 7.57111C50.0546 7.60861 49.973 7.62702 49.8905 7.62402C49.808 7.62101 49.7284 7.59672 49.6617 7.5542C49.595 7.51169 49.5441 7.45285 49.5155 7.38509C49.487 7.31734 49.4819 7.2437 49.5011 7.17345L49.852 5.87762L48.7044 5.01113C48.642 4.96393 48.5968 4.9017 48.5746 4.83219C48.5524 4.76269 48.5541 4.689 48.5794 4.62032C48.6048 4.55164 48.6527 4.49102 48.7172 4.44603C48.7817 4.40104 48.8599 4.37367 48.9421 4.36734L50.4467 4.26112L51.0272 3.03201C51.0586 2.96502 51.1121 2.90772 51.1808 2.8674C51.2495 2.82707 51.3304 2.80554 51.4132 2.80554C51.4959 2.80554 51.5768 2.82707 51.6455 2.8674C51.7143 2.90772 51.7677 2.96502 51.7991 3.03201L52.3793 4.26112L53.884 4.36734C53.9663 4.37343 54.0448 4.40065 54.1095 4.44558C54.1742 4.49051 54.2224 4.55115 54.2479 4.61991C54.2734 4.68867 54.2752 4.7625 54.2529 4.83213C54.2307 4.90176 54.1855 4.9641 54.123 5.01135L54.1245 5.01113Z" fill="#2481AA"/>
</g>
<g clip-path="url(#clip7_79_34)">
<path d="M62.8939 4.02744L61.3159 5.38907L61.7967 7.42538C61.8232 7.53592 61.8164 7.65185 61.777 7.75851C61.7377 7.86517 61.6677 7.95778 61.5757 8.02465C61.4838 8.09152 61.3741 8.12964 61.2605 8.1342C61.1469 8.13876 61.0345 8.10955 60.9375 8.05027L59.1667 6.9604L57.3948 8.05027C57.2978 8.10921 57.1855 8.13814 57.0721 8.13341C56.9588 8.12869 56.8493 8.09051 56.7575 8.0237C56.6658 7.95689 56.5959 7.86443 56.5566 7.75796C56.5173 7.65149 56.5104 7.53578 56.5367 7.42538L57.0192 5.38907L55.4412 4.02744C55.3554 3.95328 55.2934 3.85548 55.2628 3.74626C55.2322 3.63704 55.2345 3.52124 55.2694 3.41331C55.3043 3.30539 55.3702 3.21013 55.4588 3.13943C55.5475 3.06873 55.6551 3.02572 55.768 3.01578L57.837 2.84886L58.6351 0.917399C58.6783 0.812136 58.7518 0.722096 58.8463 0.658727C58.9408 0.595359 59.052 0.561523 59.1658 0.561523C59.2796 0.561523 59.3908 0.595359 59.4853 0.658727C59.5798 0.722096 59.6533 0.812136 59.6965 0.917399L60.4943 2.84886L62.5632 3.01578C62.6764 3.02535 62.7843 3.06812 62.8733 3.13872C62.9623 3.20932 63.0285 3.30462 63.0636 3.41268C63.0986 3.52073 63.1011 3.63674 63.0705 3.74616C63.0399 3.85558 62.9778 3.95355 62.8918 4.02779L62.8939 4.02744Z" fill="#2481AA"/>
</g>
<g clip-path="url(#clip8_79_34)">
<path d="M70.4463 5.01113L69.2987 5.87762L69.6483 7.17345C69.6676 7.2438 69.6627 7.31757 69.6341 7.38544C69.6055 7.45332 69.5545 7.51225 69.4877 7.55481C69.4208 7.59736 69.341 7.62162 69.2584 7.62452C69.1758 7.62742 69.0941 7.60883 69.0235 7.57111L67.7356 6.87755L66.447 7.57111C66.3764 7.60861 66.2948 7.62702 66.2123 7.62402C66.1299 7.62101 66.0503 7.59672 65.9835 7.5542C65.9168 7.51169 65.866 7.45285 65.8374 7.38509C65.8088 7.31734 65.8038 7.2437 65.8229 7.17345L66.1738 5.87762L65.0262 5.01113C64.9638 4.96393 64.9187 4.9017 64.8964 4.83219C64.8742 4.76269 64.8759 4.689 64.9012 4.62032C64.9266 4.55164 64.9745 4.49102 65.039 4.44603C65.1035 4.40104 65.1817 4.37367 65.2639 4.36734L66.7686 4.26112L67.349 3.03201C67.3804 2.96502 67.4339 2.90772 67.5026 2.8674C67.5714 2.82707 67.6522 2.80554 67.735 2.80554C67.8177 2.80554 67.8986 2.82707 67.9674 2.8674C68.0361 2.90772 68.0896 2.96502 68.121 3.03201L68.7012 4.26112L70.2058 4.36734C70.2882 4.37343 70.3666 4.40065 70.4313 4.44558C70.4961 4.49051 70.5442 4.55115 70.5697 4.61991C70.5952 4.68867 70.597 4.7625 70.5748 4.83213C70.5526 4.90176 70.5073 4.9641 70.4448 5.01135L70.4463 5.01113Z" fill="#2481AA"/>
</g>
<defs>
<clipPath id="clip0_79_34">
<rect width="5.71264" height="5.71264" fill="white" transform="translate(0 2.44824)"/>
</clipPath>
<clipPath id="clip1_79_34">
<rect width="8.97701" height="8.97701" fill="white" transform="translate(6.52875)"/>
</clipPath>
<clipPath id="clip2_79_34">
<rect width="5.71264" height="5.71264" fill="white" transform="translate(16.3218 2.44824)"/>
</clipPath>
<clipPath id="clip3_79_34">
<rect width="8.97701" height="8.97701" fill="white" transform="translate(22.8506)"/>
</clipPath>
<clipPath id="clip4_79_34">
<rect width="5.71264" height="5.71264" fill="white" transform="translate(32.6437 2.44824)"/>
</clipPath>
<clipPath id="clip5_79_34">
<rect width="8.97701" height="8.97701" fill="white" transform="translate(39.1724)"/>
</clipPath>
<clipPath id="clip6_79_34">
<rect width="6.52874" height="5.71264" fill="white" transform="translate(48.1494 2.44824)"/>
</clipPath>
<clipPath id="clip7_79_34">
<rect width="8.97701" height="8.97701" fill="white" transform="translate(54.6782)"/>
</clipPath>
<clipPath id="clip8_79_34">
<rect width="6.52874" height="5.71264" fill="white" transform="translate(64.4713 2.44824)"/>
</clipPath>
</defs>
</svg>
